<svg width="138" height="119" viewBox="0 0 138 119" fill="none" xmlns="http://www.w3.org/2000/svg">
<path fill-rule="evenodd" clip-rule="evenodd" d="M9.61978 59.2775L9.11627 58.8393C9.5758 58.4365 10.1237 58.1167 10.728 57.8984C11.3323 57.68 11.981 57.5676 12.6362 57.5676C13.2914 57.5676 13.9401 57.68 14.5444 57.8984C15.1487 58.1167 15.6966 58.4365 16.1561 58.8393L15.6434 59.2615C15.2504 58.9195 14.7827 58.648 14.2673 58.4627C13.752 58.2774 13.1992 58.182 12.6408 58.182C12.0824 58.182 11.5296 58.2774 11.0143 58.4627C10.4989 58.648 10.0312 58.9195 9.63825 59.2615M11.4121 60.7274L10.9501 60.329C11.1745 60.1296 11.443 59.971 11.7398 59.8627C12.0365 59.7544 12.3555 59.6986 12.6778 59.6986C13 59.6986 13.319 59.7544 13.6157 59.8627C13.9125 59.971 14.181 60.1296 14.4054 60.329L13.9434 60.7274C13.6096 60.4436 13.1604 60.2835 12.6916 60.2813C12.459 60.2797 12.2283 60.3184 12.0133 60.3951C11.7983 60.4717 11.6033 60.5847 11.4398 60.7274M12.6916 61.7949L11.7955 61.0381C12.0386 60.8394 12.3569 60.7234 12.6916 60.7114C13.0243 60.7204 13.3409 60.837 13.5785 61.0381L12.6916 61.7949ZM12.6916 59.2615C13.0819 59.2587 13.4686 59.3252 13.8278 59.4567C14.187 59.5883 14.5109 59.7822 14.7795 60.0263L15.3385 59.5443C14.9939 59.2372 14.5812 58.9929 14.1249 58.8261C13.6686 58.6592 13.178 58.5733 12.6824 58.5733C12.1868 58.5733 11.6962 58.6592 11.2399 58.8261C10.7836 58.9929 10.3709 59.2372 10.0263 59.5443L10.5806 60.0303C10.8526 59.7854 11.1797 59.5909 11.5419 59.4587C11.9041 59.3265 12.2937 59.2594 12.687 59.2615" fill="#0E6EB6"/>
<path fill-rule="evenodd" clip-rule="evenodd" d="M9.31014 62.3207H15.8927C11.1717 72.6176 10.3495 78.6523 15.1397 78.493C4.63079 79.0267 5.99348 70.2236 9.31476 62.3207" fill="#0E6EB6"/>
<path fill-rule="evenodd" clip-rule="evenodd" d="M15.3612 46.5269C21.3663 38.0902 31.1038 37.2298 38.042 40.3009C45.7378 43.7146 48.1121 51.6135 46.1951 58.5684C44.5091 64.8939 39.6773 70.6737 33.432 74.3901C29.6091 76.6263 25.2657 78.115 20.7058 78.7519C24.2018 77.7686 27.3304 75.9989 29.7689 73.6253C31.2823 72.2083 32.5928 70.6396 33.6722 68.9529C37.2152 64.8342 38.855 60.7991 38.9705 57.2858C39.2015 52.5735 36.8225 47.8971 31.8013 45.7342C27.4315 43.8182 21.5465 43.9178 15.3612 46.5308" fill="#F26329"/>
<path fill-rule="evenodd" clip-rule="evenodd" d="M10.8253 56.043C15.7218 47.6781 25.8057 47.0925 31.7461 50.7133C34.0873 52.1459 35.7324 54.2738 36.3654 56.6883C37.1738 59.7634 36.5825 62.9501 35.2429 65.9893C34.0108 68.8171 32.1515 71.4108 29.7691 73.6254C26.3877 76.8479 21.5467 79.3056 16.3731 79.2578C14.3054 79.2672 12.2734 78.7937 10.4927 77.8875C12.9363 78.9032 16.738 78.5448 19.0615 77.7441C22.9048 76.3858 25.9905 73.5696 27.9167 70.4546C30.2957 66.6386 32.1711 60.4964 28.3787 56.9791C24.9373 53.7128 18.073 52.5974 10.8253 56.039" fill="#09A14A"/>
<path d="M125.846 60.8349L127.01 57.955C126.871 57.955 126.724 57.955 126.599 57.955C126.237 57.9424 125.876 57.9942 125.538 58.1073C125.2 58.2204 124.893 58.3923 124.636 58.6122C124.12 59.0508 123.769 59.6128 123.629 60.2255C123.527 60.5032 123.538 60.8025 123.661 61.0739C123.72 61.1741 123.812 61.2571 123.925 61.3124C124.039 61.3677 124.169 61.3928 124.298 61.3846C124.868 61.3537 125.411 61.1682 125.851 60.8548M129.546 56.6763L127.107 62.5796H125.125L125.352 62.018C124.756 62.4282 124.025 62.6665 123.264 62.6991C122.962 62.7104 122.663 62.6479 122.4 62.519C122.138 62.39 121.923 62.1998 121.781 61.9702C121.443 61.3926 121.376 60.7253 121.592 60.106C121.841 59.0565 122.524 58.1209 123.513 57.473C124.609 56.7585 125.961 56.3964 127.333 56.4493C128.07 56.4426 128.805 56.5108 129.523 56.6524M121.448 56.5767L118.977 62.5796H116.995L119.476 56.5767H121.448ZM120.099 54.8958C120.156 54.6442 120.31 54.4166 120.535 54.2496C120.761 54.0827 121.045 53.9861 121.342 53.9756C121.469 53.9727 121.594 53.9953 121.709 54.0416C121.824 54.0879 121.924 54.1567 122.003 54.2425C122.083 54.3346 122.138 54.4416 122.162 54.555C122.186 54.6684 122.179 54.7851 122.141 54.8958C122.075 55.157 121.913 55.3929 121.679 55.569C121.453 55.7305 121.169 55.8204 120.876 55.8239C120.752 55.8267 120.629 55.8053 120.516 55.7611C120.403 55.7169 120.303 55.6512 120.224 55.569C120.149 55.4711 120.099 55.3599 120.079 55.2435C120.059 55.1272 120.069 55.0084 120.109 54.8958M113.896 61.1655L115.166 58.0466C115.003 58.0238 114.837 58.0131 114.672 58.0147C114.021 58.003 113.386 58.186 112.875 58.5326C112.388 58.8535 112.048 59.3117 111.914 59.8271C111.855 60.0012 111.844 60.1847 111.882 60.3631C111.92 60.5415 112.005 60.7098 112.131 60.8548C112.284 60.9945 112.471 61.1028 112.679 61.1718C112.887 61.2407 113.11 61.2685 113.332 61.2532C113.522 61.2439 113.711 61.2199 113.896 61.1815M118.977 53.5454L115.323 62.5119C114.553 62.635 113.773 62.703 112.99 62.715C111.803 62.715 110.93 62.4521 110.367 61.9184C109.803 61.3846 109.646 60.6955 109.872 59.8192C110.106 58.8746 110.713 58.0296 111.591 57.4292C112.496 56.777 113.645 56.429 114.824 56.4493C115.143 56.4538 115.46 56.4751 115.776 56.513L116.991 53.5295L118.977 53.5454ZM105.452 56.5767L105.151 57.2499C105.865 56.7755 106.728 56.4979 107.627 56.4533C107.858 56.4345 108.091 56.4702 108.3 56.5565C108.509 56.6428 108.687 56.7765 108.815 56.9432C108.937 57.1526 109.01 57.3807 109.03 57.6144C109.05 57.8482 109.016 58.0831 108.93 58.3055C108.887 58.4877 108.829 58.6674 108.759 58.8433L107.239 62.5836H105.267L106.731 58.9986C106.785 58.8981 106.826 58.7925 106.851 58.6839C106.99 58.0904 106.851 57.7996 106.449 57.7996C106.048 57.7996 105.35 58.0984 104.56 58.7238L102.976 62.5916H100.994L103.47 56.5767H105.452ZM102.634 53.5454L98.9385 62.5955H96.8043L100.5 53.5454H102.634ZM94.4115 53.5454L90.7161 62.5955H88.7529L92.4483 53.5454H94.4115ZM85.6349 60.8508L86.7897 57.9709C86.6511 57.9709 86.5033 57.9709 86.3786 57.9709C86.0179 57.9585 85.6582 58.0104 85.322 58.1235C84.9857 58.2366 84.6802 58.4084 84.4246 58.6282C83.9132 59.0563 83.5597 59.605 83.4084 60.2055C83.3013 60.4832 83.3161 60.7851 83.4499 61.054C83.5067 61.1539 83.5969 61.2369 83.7089 61.2923C83.8208 61.3477 83.9494 61.3729 84.0782 61.3647C84.648 61.3306 85.1917 61.1456 85.6349 60.8349M89.3303 56.6564L86.9052 62.5796H84.9327L85.1637 62.018C84.5671 62.4244 83.8395 62.6623 83.0804 62.6991C82.7734 62.715 82.4675 62.6553 82.1984 62.5269C81.9294 62.3985 81.7081 62.2068 81.5606 61.9741C81.2302 61.3948 81.1626 60.73 81.3712 60.1099C81.6192 59.06 82.3023 58.1239 83.2929 57.477C84.3925 56.7622 85.7466 56.4002 87.1223 56.4533C87.8573 56.4472 88.5906 56.5153 89.3072 56.6564M80.7245 55.2941L80.1425 56.5767H81.5976L81.0017 57.8912H79.5374L78.6689 59.851C78.5929 59.999 78.5371 60.154 78.5027 60.3131C78.3595 60.8508 78.5027 61.1098 78.9045 61.1098C79.3353 61.0562 79.7506 60.9333 80.1286 60.7473L79.7268 62.3406C79.1711 62.5867 78.5588 62.7228 77.9345 62.7389C77.668 62.7552 77.4012 62.7129 77.1588 62.6161C76.9165 62.5193 76.7066 62.371 76.5487 62.1853C76.4064 61.9667 76.3164 61.7258 76.2838 61.4768C76.2513 61.2278 76.277 60.9757 76.3593 60.7353C76.4193 60.564 76.4794 60.3888 76.5487 60.2135L77.6065 57.9151H76.2669L76.8489 56.6006H78.1978L78.7567 55.33L80.7245 55.2941ZM75.8974 56.5767L73.4307 62.5796H71.4582L73.9157 56.5767H75.8974ZM74.5347 54.8958C74.603 54.6408 74.765 54.4117 74.9966 54.2425C75.2197 54.0773 75.5018 53.9831 75.7957 53.9756C75.9231 53.9721 76.0497 53.9943 76.1652 54.0407C76.2808 54.0871 76.3821 54.1562 76.4609 54.2425C76.5355 54.3371 76.5864 54.444 76.6103 54.5565C76.6341 54.669 76.6305 54.7846 76.5995 54.8958C76.5257 55.1545 76.365 55.3886 76.1376 55.569C75.9106 55.7269 75.6299 55.8165 75.3384 55.8239C75.2142 55.8292 75.0902 55.8089 74.9769 55.7645C74.8636 55.7202 74.7643 55.6531 74.6871 55.569C74.6075 55.4727 74.5538 55.3623 74.5298 55.2458C74.5058 55.1294 74.5122 55.0098 74.5485 54.8958M68.1046 63.91C68.1693 63.6312 67.906 63.4241 67.3239 63.3165L66.4971 63.1452C66.2252 63.1593 65.9588 63.2174 65.7118 63.3165C65.5633 63.3512 65.4282 63.4193 65.3203 63.5138C65.2123 63.6082 65.1354 63.7257 65.0974 63.8543C64.9958 64.2765 65.43 64.4796 66.4093 64.4796C66.8199 64.4944 67.2305 64.45 67.6242 64.3482C67.7389 64.3164 67.842 64.2592 67.923 64.1823C68.0041 64.1054 68.0603 64.0115 68.0861 63.91M68.003 59.9267C68.719 59.9267 69.1809 59.4886 69.3888 58.6282C69.4256 58.5248 69.4376 58.416 69.4241 58.3085C69.4106 58.201 69.3719 58.097 69.3102 58.0028C69.2373 57.9231 69.1425 57.8603 69.0345 57.82C68.9265 57.7797 68.8085 57.7631 68.6912 57.7717C67.9706 57.7717 67.4948 58.2059 67.2546 59.0942C67.1207 59.6399 67.3563 59.9267 67.9845 59.9267M72.784 56.5767L72.2573 57.8912H71.1995C71.272 58.2095 71.272 58.5369 71.1995 58.8552C71.0387 59.4753 70.6319 60.0275 70.0493 60.4167C69.4248 60.8401 68.6494 61.0639 67.8552 61.05C67.5458 61.0427 67.2364 61.0613 66.9313 61.1058C66.8484 61.1127 66.7704 61.1429 66.7094 61.1919C66.6485 61.2409 66.6079 61.3058 66.5941 61.3766C66.571 61.4483 66.5941 61.5121 66.7234 61.5917C67.1769 61.7077 67.6403 61.793 68.1092 61.8467C68.9268 61.9702 69.495 62.1693 69.7629 62.492C69.9104 62.6603 70.0105 62.8558 70.0554 63.0632C70.1003 63.2706 70.0887 63.4841 70.0216 63.687C69.6936 64.9855 68.3817 65.6468 66.0906 65.6468C65.3079 65.6972 64.5243 65.5593 63.8271 65.2484C63.6071 65.143 63.4343 64.977 63.3364 64.7771C63.2384 64.5771 63.2209 64.3546 63.2867 64.145C63.4391 63.5714 64.095 63.1054 65.2683 62.8027C65.0288 62.7083 64.8347 62.545 64.7192 62.3408C64.6038 62.1367 64.5742 61.9043 64.6355 61.6834C64.7787 61.1257 65.3191 60.7552 66.2569 60.576C65.9404 60.3886 65.7007 60.1198 65.5721 59.8078C65.4435 59.4959 65.4326 59.1569 65.5409 58.8393C65.7233 58.1981 66.1636 57.6334 66.7835 57.2459C67.436 56.795 68.2526 56.5579 69.0885 56.5767H72.784ZM64.9311 56.5767L62.4644 62.5955H60.492L62.9264 56.5767H64.9311ZM63.5453 54.8958C63.6143 54.641 63.7762 54.4121 64.0073 54.2425C64.2285 54.0798 64.5066 53.9858 64.7972 53.9756C64.9242 53.9739 65.0501 53.997 65.1653 54.0432C65.2805 54.0894 65.3821 54.1576 65.4623 54.2425C65.5401 54.3358 65.5919 54.4432 65.6135 54.5566C65.6351 54.6699 65.6261 54.786 65.5871 54.8958C65.5143 55.1548 65.3534 55.3892 65.1251 55.569C64.8973 55.731 64.6121 55.821 64.3168 55.8239C64.1934 55.8276 64.0707 55.8066 63.9585 55.7623C63.8462 55.7181 63.7475 55.6519 63.6701 55.569C63.5956 55.4706 63.5449 55.3603 63.5211 55.2446C63.4973 55.1289 63.5008 55.0103 63.5315 54.8958M54.8333 55.0511L52.3943 61.0819H54.3806C54.875 61.0893 55.3661 61.0118 55.8253 60.8538C56.2845 60.6958 56.7026 60.4606 57.0552 60.1617C57.8069 59.5606 58.3193 58.7702 58.5195 57.9032C58.6385 57.5544 58.6658 57.1872 58.5995 56.8282C58.5332 56.4692 58.3749 56.1275 58.1361 55.8279C57.8594 55.5495 57.5098 55.332 57.1161 55.1935C56.7225 55.0549 56.2962 54.9993 55.8727 55.0312L54.8333 55.0511ZM53.3413 53.5454H56.658C58.3301 53.5454 59.5034 53.9438 60.1825 54.7723C60.8615 55.6008 61.0278 56.6564 60.7045 57.959C60.3987 59.2394 59.6287 60.4028 58.5057 61.281C57.52 62.1192 56.1945 62.5936 54.8102 62.6035H49.6643L53.3413 53.5454Z" fill="white"/>
<path fill-rule="evenodd" clip-rule="evenodd" d="M50.4961 68.7657H51.637C52.0114 68.7762 52.3786 68.6749 52.6764 68.4789C52.7993 68.3863 52.8961 68.2707 52.9594 68.1409C53.0226 68.0111 53.0506 67.8706 53.0413 67.7301C53.0504 67.5878 53.0223 67.4455 52.9591 67.3139C52.896 67.1822 52.7994 67.0644 52.6764 66.9692C52.3807 66.7709 52.0108 66.6731 51.637 66.6944H50.4961V68.7657ZM50.4961 69.3114V71.6138H49.8216V66.1367H51.4892C52.079 66.1101 52.6628 66.2499 53.1522 66.5351C53.3562 66.6786 53.5181 66.8617 53.6249 67.0693C53.7316 67.2769 53.7801 67.5033 53.7665 67.7301C53.7768 67.9519 53.7266 68.1727 53.6199 68.3747C53.5132 68.5767 53.353 68.7543 53.1522 68.8932C52.6692 69.192 52.0829 69.3409 51.4892 69.3154L50.4961 69.3114Z" fill="white"/>
<path fill-rule="evenodd" clip-rule="evenodd" d="M56.4827 71.084C56.6895 71.0882 56.8951 71.0549 57.086 70.9863C57.277 70.9177 57.4492 70.8153 57.5913 70.6857C57.7417 70.5515 57.86 70.3931 57.9392 70.2195C58.0185 70.0459 58.0572 69.8605 58.0533 69.6739C58.0595 69.4877 58.0218 69.3023 57.9424 69.1291C57.863 68.9558 57.7435 68.7983 57.5913 68.6661C57.4533 68.5299 57.2827 68.421 57.0914 68.3468C56.9001 68.2725 56.6925 68.2347 56.4827 68.2359C56.2704 68.2319 56.0597 68.2684 55.8656 68.3427C55.6716 68.4171 55.499 68.5275 55.3602 68.6661C55.2087 68.7987 55.0897 68.9563 55.0103 69.1295C54.9309 69.3026 54.8928 69.4878 54.8983 69.6739C54.8913 70.0505 55.0573 70.4143 55.3602 70.6857C55.5032 70.8176 55.6775 70.9215 55.8712 70.9902C56.0648 71.0589 56.2734 71.0909 56.4827 71.084ZM56.4827 71.6257C56.1853 71.6363 55.8887 71.5925 55.6124 71.497C55.3362 71.4016 55.0865 71.2567 54.8798 71.072C54.4721 70.6826 54.2464 70.1766 54.2464 69.652C54.2464 69.1273 54.4721 68.6214 54.8798 68.2319C55.3072 67.8707 55.8819 67.6683 56.4804 67.6683C57.0789 67.6683 57.6536 67.8707 58.081 68.2319C58.4839 68.6234 58.7065 69.1286 58.7065 69.652C58.7065 70.1754 58.4839 70.6806 58.081 71.072C57.8756 71.2559 57.6274 71.4003 57.3528 71.4957C57.0781 71.5911 56.7832 71.6354 56.4873 71.6257" fill="white"/>
<path fill-rule="evenodd" clip-rule="evenodd" d="M61.365 70.6339L62.6122 67.5986H63.0234L64.2937 70.6299L65.624 67.6543H66.243L64.46 71.6177H64.0535L62.8062 68.6462L61.5452 71.6177H61.1433L59.3602 67.6543H60.0439L61.365 70.6339Z" fill="white"/>
<path fill-rule="evenodd" clip-rule="evenodd" d="M70.0124 69.172C69.9718 68.9635 69.87 68.7674 69.7167 68.6024C69.5987 68.4787 69.4486 68.3806 69.2784 68.3163C69.1083 68.2519 68.9229 68.223 68.7374 68.232C68.5593 68.2373 68.3846 68.2757 68.2252 68.3444C68.0658 68.4131 67.9254 68.5106 67.8136 68.6303C67.6719 68.7951 67.5641 68.9797 67.4949 69.176L70.0124 69.172ZM67.4025 69.642C67.4011 69.8277 67.4434 70.0116 67.5268 70.1828C67.6101 70.3539 67.7328 70.5087 67.8875 70.6379C68.0374 70.7746 68.2188 70.8828 68.4201 70.9555C68.6214 71.0282 68.838 71.0638 69.0562 71.0601C69.3241 71.0607 69.59 71.0203 69.8415 70.9406C70.1083 70.8486 70.3574 70.7223 70.5805 70.5662L70.7284 70.4586V71.0721H70.6822C70.4526 71.2431 70.1899 71.3779 69.9061 71.4704C69.4832 71.6 69.0277 71.6292 68.5873 71.5549C68.1468 71.4806 67.7376 71.3056 67.4025 71.0482C67.1889 70.8629 67.0217 70.6418 66.9112 70.3986C66.8008 70.1553 66.7495 69.8951 66.7604 69.6341C66.7359 69.1162 66.9332 68.6086 67.3147 68.208C67.4883 68.0282 67.707 67.8846 67.9542 67.788C68.2014 67.6914 68.4708 67.6444 68.7421 67.6504C69.0173 67.6371 69.2924 67.677 69.5474 67.7673C69.8024 67.8576 70.0307 67.996 70.2156 68.1722C70.5617 68.5578 70.7414 69.0352 70.7237 69.5225V69.6022L67.4025 69.642Z" fill="white"/>
<path fill-rule="evenodd" clip-rule="evenodd" d="M72.7844 68.232C72.8717 68.0918 72.9907 67.9681 73.1343 67.8682C73.2778 67.7682 73.4431 67.694 73.6203 67.6498C73.7976 67.6057 73.9833 67.5925 74.1666 67.6111C74.3498 67.6296 74.5269 67.6796 74.6875 67.7579C74.6969 67.7584 74.7059 67.7613 74.7134 67.7663C74.7208 67.7713 74.7263 67.7781 74.7291 67.7858V68.4072C74.6875 68.3873 74.7291 68.4072 74.6737 68.4072C73.6297 67.9053 72.9922 68.6263 72.7844 69.1163V71.6098H72.1423V67.6265H72.7844V68.232Z" fill="white"/>
<path fill-rule="evenodd" clip-rule="evenodd" d="M79.4218 66.7103H77.3847V66.2084H82.1426V66.7103H80.1054V71.558H79.4218V66.7103Z" fill="white"/>
<path fill-rule="evenodd" clip-rule="evenodd" d="M90.5131 66.794V68.5426H93.0906V69.0605H90.5131V71.0163H93.571V71.5381H89.834V66.2722H93.4509V66.794H90.5131Z" fill="white"/>
<path fill-rule="evenodd" clip-rule="evenodd" d="M95.4186 68.1563C95.5725 67.9912 95.7673 67.8579 95.9887 67.7662C96.2101 67.6745 96.4525 67.6268 96.6982 67.6265C96.9223 67.6193 97.1457 67.6532 97.3536 67.726C97.5614 67.7987 97.749 67.9088 97.9038 68.0487C98.0052 68.1432 98.0936 68.2474 98.1671 68.3594L98.2595 68.228C98.4175 68.0437 98.6226 67.8932 98.8589 67.7882C99.0952 67.6832 99.3564 67.6265 99.6222 67.6225C99.8464 67.6148 100.07 67.6484 100.278 67.7213C100.486 67.7941 100.673 67.9044 100.828 68.0447C100.985 68.1888 101.107 68.3586 101.186 68.544C101.265 68.7295 101.301 68.9268 101.29 69.1242V71.4823H100.62V69.1481C100.635 68.8868 100.53 68.6308 100.329 68.4351C100.233 68.3422 100.113 68.2696 99.9796 68.2226C99.8459 68.1757 99.7015 68.1557 99.5575 68.1642C99.3676 68.172 99.1821 68.2161 99.0143 68.2933C98.8466 68.3704 98.7008 68.4787 98.5875 68.6104C98.5018 68.6843 98.4273 68.7673 98.3657 68.8573V71.4823H97.6959V69.1481C97.7043 69.0186 97.6829 68.8889 97.633 68.7666C97.5831 68.6442 97.5055 68.5315 97.4049 68.4351C97.3077 68.3434 97.1881 68.2715 97.0546 68.2246C96.9212 68.1778 96.7773 68.1572 96.6335 68.1642C96.4424 68.1725 96.2557 68.2168 96.0866 68.2938C95.9174 68.3709 95.7698 68.4789 95.6542 68.6104C95.5727 68.6884 95.4971 68.7709 95.4279 68.8573V71.4823H94.7719V67.6982H95.4186V68.1563Z" fill="white"/>
<path d="M102.722 67.7062H103.392V68.1842C103.532 67.981 103.754 67.8293 104.015 67.758C104.412 67.621 104.845 67.5857 105.264 67.6564C105.683 67.7271 106.069 67.9007 106.376 68.1563C106.763 68.5594 106.977 69.0654 106.981 69.5887C106.985 70.1121 106.78 70.6206 106.399 71.0283C105.595 71.7851 104.417 71.6138 103.457 71.1756L103.392 71.1398V72.9841H102.722V67.7062ZM105.42 68.3953C104.865 68.0846 104.057 68.1563 103.406 68.9091V70.4507C104.085 71.08 104.962 71.1398 105.544 70.7733C105.748 70.6238 105.91 70.436 106.017 70.2243C106.124 70.0126 106.173 69.7826 106.161 69.552C106.149 69.3213 106.076 69.0961 105.948 68.8936C105.819 68.691 105.638 68.5165 105.42 68.3833" fill="white"/>
<path d="M60.9589 63.4878H48.302V64.1172H60.9589V63.4878Z" fill="white"/>
<path d="M128.733 63.4878H71.1487V64.1172H128.733V63.4878Z" fill="white"/>
<path fill-rule="evenodd" clip-rule="evenodd" d="M83.9629 70.9805C84.17 70.9864 84.3762 70.954 84.5674 70.8852C84.7587 70.8165 84.9306 70.7131 85.0715 70.5821C85.3729 70.3115 85.5388 69.9495 85.5335 69.5743C85.5368 69.1971 85.3713 68.8333 85.0715 68.5586C84.9332 68.4247 84.7618 68.3194 84.5699 68.2505C84.3779 68.1815 84.1705 68.1507 83.9629 68.1603C83.7543 68.1534 83.5464 68.1854 83.3535 68.2542C83.1606 68.3229 82.9871 68.4267 82.845 68.5586C82.5414 68.8312 82.3753 69.1964 82.3831 69.5743C82.3784 69.7604 82.4169 69.9453 82.4962 70.1184C82.5755 70.2914 82.6941 70.4491 82.845 70.5821C82.989 70.7119 83.1627 70.8144 83.3552 70.883C83.5477 70.9516 83.7547 70.9848 83.9629 70.9805ZM83.9629 71.5262C83.6658 71.5345 83.37 71.4896 83.0941 71.3943C82.8182 71.299 82.5682 71.1554 82.36 70.9725C82.1503 70.7852 81.9862 70.5636 81.8775 70.3207C81.7688 70.0778 81.7177 69.8186 81.7272 69.5584C81.7133 69.2954 81.7623 69.0327 81.8712 68.7867C81.98 68.5407 82.1464 68.3166 82.36 68.1284C82.5667 67.9433 82.8162 67.7976 83.0923 67.7009C83.3684 67.6041 83.665 67.5584 83.9629 67.5668C84.2596 67.5573 84.5552 67.6025 84.83 67.6993C85.1048 67.7962 85.3525 67.9425 85.5566 68.1284C85.7686 68.3146 85.9348 68.5359 86.0451 68.7789C86.1554 69.0219 86.2077 69.2816 86.1986 69.5425C86.2058 69.8031 86.1528 70.0624 86.0425 70.3052C85.9323 70.548 85.7671 70.7694 85.5566 70.9566C85.3494 71.1384 85.1009 71.2815 84.8267 71.3768C84.5525 71.4721 84.2584 71.5175 83.9629 71.5102" fill="white"/>
<path fill-rule="evenodd" clip-rule="evenodd" d="M110.039 70.9804C110.245 70.9844 110.451 70.951 110.642 70.8824C110.833 70.8138 111.005 70.7115 111.147 70.5821C111.449 70.3119 111.615 69.9496 111.609 69.5743C111.613 69.1969 111.448 68.8328 111.147 68.5586C111.005 68.4277 110.832 68.3235 110.641 68.2522C110.45 68.1809 110.244 68.1442 110.036 68.1442C109.828 68.1442 109.622 68.1809 109.431 68.2522C109.24 68.3235 109.068 68.4277 108.925 68.5586C108.774 68.6928 108.655 68.8518 108.575 69.0262C108.496 69.2007 108.458 69.387 108.463 69.5743C108.457 69.7605 108.495 69.9459 108.574 70.1191C108.654 70.2924 108.773 70.4499 108.925 70.5821C109.068 70.7115 109.24 70.8138 109.431 70.8824C109.622 70.951 109.827 70.9844 110.034 70.9804M110.034 71.5261C109.737 71.5362 109.44 71.4921 109.164 71.3967C108.888 71.3013 108.638 71.1568 108.431 70.9725C108.22 70.7859 108.055 70.5643 107.947 70.3213C107.838 70.0783 107.787 69.8187 107.798 69.5584C107.784 69.2946 107.834 69.0313 107.944 68.785C108.055 68.5388 108.224 68.3152 108.44 68.1284C108.646 67.942 108.895 67.7956 109.172 67.6987C109.448 67.6019 109.745 67.5569 110.043 67.5667C110.341 67.5587 110.637 67.6045 110.914 67.7012C111.19 67.7979 111.439 67.9434 111.646 68.1284C111.853 68.3169 112.015 68.539 112.122 68.7817C112.229 69.0244 112.279 69.2829 112.27 69.5425C112.286 70.0662 112.062 70.5742 111.646 70.9565C111.438 71.1392 111.188 71.2827 110.912 71.378C110.636 71.4733 110.34 71.5183 110.043 71.5102" fill="white"/>
<path fill-rule="evenodd" clip-rule="evenodd" d="M114.926 70.6817L116.178 67.6305H116.598L117.85 70.6737L119.181 67.6942H119.818L118.035 71.6497H117.628L116.372 68.6861L115.12 71.6497H114.709L112.926 67.6942H113.6L114.926 70.6817Z" fill="white"/>
<path fill-rule="evenodd" clip-rule="evenodd" d="M123.596 69.172C123.558 68.9629 123.456 68.7664 123.301 68.6024C123.184 68.4788 123.034 68.3807 122.865 68.3163C122.695 68.2519 122.511 68.223 122.326 68.232C122.147 68.2344 121.971 68.2714 121.811 68.3403C121.651 68.4093 121.512 68.5084 121.402 68.6303C121.255 68.7921 121.146 68.9776 121.083 69.176L123.596 69.172ZM120.991 69.6421C120.989 69.8278 121.031 70.0119 121.115 70.1831C121.198 70.3543 121.321 70.509 121.476 70.6379C121.625 70.7736 121.805 70.8812 122.004 70.9539C122.204 71.0266 122.419 71.0627 122.635 71.0601C122.903 71.0599 123.169 71.0194 123.421 70.9406C123.687 70.8531 123.934 70.7264 124.151 70.5662L124.312 70.4586V71.0721H124.28C124.045 71.2429 123.778 71.3776 123.49 71.4704C123.066 71.6007 122.609 71.6302 122.167 71.5559C121.724 71.4817 121.314 71.3063 120.977 71.0482C120.766 70.8616 120.601 70.6402 120.491 70.3972C120.382 70.1542 120.33 69.8947 120.34 69.6341C120.319 69.1174 120.514 68.6115 120.889 68.2081C121.073 68.0353 121.296 67.8967 121.544 67.801C121.792 67.7052 122.06 67.6543 122.332 67.6513C122.604 67.6483 122.873 67.6933 123.124 67.7836C123.375 67.8739 123.602 68.0075 123.79 68.1762C124.14 68.5605 124.323 69.0382 124.308 69.5266V69.6062L120.991 69.6421Z" fill="white"/>
<path fill-rule="evenodd" clip-rule="evenodd" d="M126.368 68.1921C126.457 68.0546 126.576 67.9335 126.719 67.8358C126.862 67.738 127.026 67.6656 127.202 67.6227C127.377 67.5798 127.561 67.5672 127.742 67.5856C127.923 67.604 128.098 67.6531 128.258 67.7301C128.258 67.7301 128.29 67.7301 128.308 67.75V68.3953C128.253 68.3435 128.308 68.3953 128.253 68.3674C127.204 67.8615 126.572 68.5905 126.364 69.0685V71.562H125.722V67.5946H126.368V68.1921Z" fill="white"/>
</svg>
