<svg width="138" height="119" viewBox="0 0 138 119" fill="none" xmlns="http://www.w3.org/2000/svg">
<path fill-rule="evenodd" clip-rule="evenodd" d="M9.61972 59.2775L9.11621 58.8393C9.57574 58.4365 10.1236 58.1167 10.7279 57.8984C11.3323 57.68 11.9809 57.5676 12.6361 57.5676C13.2913 57.5676 13.94 57.68 14.5443 57.8984C15.1486 58.1167 15.6965 58.4365 16.156 58.8393L15.6433 59.2615C15.2503 58.9195 14.7826 58.648 14.2673 58.4627C13.7519 58.2774 13.1991 58.182 12.6407 58.182C12.0824 58.182 11.5296 58.2774 11.0142 58.4627C10.4988 58.648 10.0312 58.9195 9.63819 59.2615M11.412 60.7274L10.9501 60.329C11.1744 60.1296 11.4429 59.971 11.7397 59.8627C12.0365 59.7544 12.3554 59.6986 12.6777 59.6986C12.9999 59.6986 13.3189 59.7544 13.6157 59.8627C13.9124 59.971 14.181 60.1296 14.4053 60.329L13.9434 60.7274C13.6096 60.4436 13.1603 60.2835 12.6916 60.2813C12.4589 60.2797 12.2283 60.3184 12.0133 60.3951C11.7983 60.4717 11.6032 60.5847 11.4397 60.7274M12.6916 61.7949L11.7954 61.0381C12.0385 60.8394 12.3569 60.7234 12.6916 60.7114C13.0243 60.7204 13.3409 60.837 13.5785 61.0381L12.6916 61.7949ZM12.6916 59.2615C13.0818 59.2587 13.4685 59.3252 13.8277 59.4567C14.1869 59.5883 14.5109 59.7822 14.7795 60.0263L15.3384 59.5443C14.9938 59.2372 14.5811 58.9929 14.1248 58.8261C13.6685 58.6592 13.1779 58.5733 12.6823 58.5733C12.1867 58.5733 11.6961 58.6592 11.2398 58.8261C10.7835 58.9929 10.3708 59.2372 10.0262 59.5443L10.5805 60.0303C10.8526 59.7854 11.1797 59.5909 11.5418 59.4587C11.904 59.3265 12.2937 59.2594 12.6869 59.2615" fill="#0E6EB6"/>
<path fill-rule="evenodd" clip-rule="evenodd" d="M9.31007 62.3207H15.8926C11.1716 72.6175 10.3494 78.6523 15.1396 78.4929C4.63071 79.0267 5.99341 70.2236 9.31469 62.3207" fill="#0E6EB6"/>
<path fill-rule="evenodd" clip-rule="evenodd" d="M15.3611 46.5268C21.3662 38.0902 31.1037 37.2298 38.0419 40.3009C45.7376 43.7146 48.112 51.6135 46.195 58.5684C44.5089 64.8939 39.6771 70.6737 33.4318 74.3901C29.609 76.6263 25.2656 78.115 20.7056 78.7519C24.2017 77.7686 27.3302 75.9989 29.7687 73.6253C31.2821 72.2083 32.5926 70.6396 33.672 68.9529C37.215 64.8342 38.8549 60.7991 38.9704 57.2858C39.2013 52.5735 36.8224 47.8971 31.8012 45.7342C27.4313 43.8182 21.5463 43.9178 15.3611 46.5308" fill="#F26329"/>
<path fill-rule="evenodd" clip-rule="evenodd" d="M10.8253 56.043C15.7217 47.678 25.8057 47.0925 31.7461 50.7133C34.0873 52.1459 35.7323 54.2737 36.3654 56.6883C37.1738 59.7634 36.5825 62.9501 35.2429 65.9893C34.0108 68.8171 32.1515 71.4107 29.769 73.6253C26.3877 76.8478 21.5467 79.3055 16.3731 79.2577C14.3054 79.2672 12.2734 78.7937 10.4927 77.8875C12.9363 78.9032 16.738 78.5447 19.0615 77.7441C22.9048 76.3858 25.9904 73.5696 27.9167 70.4546C30.2956 66.6386 32.1711 60.4963 28.3786 56.9791C24.9372 53.7128 18.073 52.5974 10.8253 56.039" fill="#09A14A"/>
<path d="M125.846 60.8349L127.01 57.955C126.871 57.955 126.724 57.955 126.599 57.955C126.237 57.9424 125.876 57.9942 125.538 58.1073C125.2 58.2204 124.893 58.3923 124.636 58.6122C124.12 59.0508 123.769 59.6128 123.629 60.2255C123.527 60.5032 123.538 60.8025 123.661 61.0739C123.72 61.1741 123.812 61.2571 123.925 61.3124C124.039 61.3677 124.168 61.3928 124.298 61.3846C124.868 61.3537 125.411 61.1682 125.851 60.8548M129.546 56.6763L127.107 62.5796H125.125L125.352 62.018C124.756 62.4282 124.025 62.6665 123.264 62.6991C122.962 62.7104 122.663 62.6479 122.4 62.519C122.138 62.39 121.923 62.1998 121.781 61.9702C121.443 61.3926 121.375 60.7253 121.592 60.106C121.841 59.0565 122.524 58.1209 123.513 57.473C124.609 56.7585 125.961 56.3964 127.333 56.4493C128.07 56.4426 128.805 56.5108 129.523 56.6524M121.448 56.5767L118.977 62.5796H116.995L119.476 56.5767H121.448ZM120.099 54.8958C120.156 54.6442 120.31 54.4166 120.535 54.2496C120.761 54.0827 121.045 53.9861 121.342 53.9756C121.469 53.9727 121.594 53.9953 121.709 54.0416C121.824 54.0879 121.924 54.1567 122.003 54.2425C122.083 54.3346 122.138 54.4416 122.162 54.555C122.186 54.6684 122.179 54.7851 122.141 54.8958C122.075 55.157 121.913 55.3929 121.679 55.569C121.453 55.7305 121.169 55.8204 120.876 55.8239C120.752 55.8267 120.629 55.8053 120.516 55.7611C120.403 55.7169 120.303 55.6512 120.224 55.569C120.149 55.4711 120.099 55.3599 120.079 55.2435C120.059 55.1272 120.069 55.0084 120.109 54.8958M113.896 61.1655L115.166 58.0466C115.003 58.0238 114.837 58.0131 114.672 58.0147C114.021 58.003 113.386 58.186 112.875 58.5326C112.388 58.8535 112.048 59.3117 111.914 59.8271C111.855 60.0012 111.844 60.1847 111.882 60.3631C111.92 60.5415 112.005 60.7098 112.131 60.8548C112.284 60.9945 112.471 61.1028 112.679 61.1718C112.887 61.2407 113.11 61.2685 113.332 61.2532C113.522 61.2439 113.711 61.2199 113.896 61.1815M118.977 53.5454L115.323 62.5119C114.553 62.635 113.773 62.703 112.99 62.715C111.803 62.715 110.93 62.4521 110.367 61.9184C109.803 61.3846 109.646 60.6955 109.872 59.8192C110.106 58.8746 110.713 58.0296 111.591 57.4292C112.496 56.777 113.645 56.429 114.824 56.4493C115.143 56.4538 115.46 56.4751 115.776 56.513L116.991 53.5295L118.977 53.5454ZM105.452 56.5767L105.151 57.2499C105.865 56.7755 106.728 56.4979 107.627 56.4533C107.858 56.4345 108.09 56.4702 108.3 56.5565C108.509 56.6428 108.687 56.7765 108.815 56.9432C108.937 57.1526 109.01 57.3807 109.03 57.6144C109.05 57.8482 109.016 58.0831 108.93 58.3055C108.887 58.4877 108.829 58.6674 108.759 58.8433L107.239 62.5836H105.267L106.731 58.9986C106.785 58.8981 106.826 58.7925 106.851 58.6839C106.99 58.0904 106.851 57.7996 106.449 57.7996C106.048 57.7996 105.35 58.0984 104.56 58.7238L102.976 62.5916H100.994L103.47 56.5767H105.452ZM102.634 53.5454L98.9384 62.5955H96.8043L100.5 53.5454H102.634ZM94.4115 53.5454L90.7161 62.5955H88.7529L92.4483 53.5454H94.4115ZM85.6348 60.8508L86.7897 57.9709C86.6511 57.9709 86.5033 57.9709 86.3785 57.9709C86.0179 57.9585 85.6582 58.0104 85.3219 58.1235C84.9857 58.2366 84.6802 58.4084 84.4246 58.6282C83.9132 59.0563 83.5597 59.605 83.4083 60.2055C83.3013 60.4832 83.3161 60.7851 83.4499 61.054C83.5067 61.1539 83.5969 61.2369 83.7089 61.2923C83.8208 61.3477 83.9494 61.3729 84.0781 61.3647C84.6479 61.3306 85.1916 61.1456 85.6348 60.8349M89.3303 56.6564L86.9052 62.5796H84.9327L85.1637 62.018C84.567 62.4244 83.8395 62.6623 83.0804 62.6991C82.7734 62.715 82.4675 62.6553 82.1984 62.5269C81.9293 62.3985 81.7081 62.2068 81.5606 61.9741C81.2302 61.3948 81.1626 60.73 81.3712 60.1099C81.6191 59.06 82.3023 58.1239 83.2929 57.477C84.3925 56.7622 85.7466 56.4002 87.1223 56.4533C87.8573 56.4472 88.5906 56.5153 89.3072 56.6564M80.7245 55.2941L80.1425 56.5767H81.5976L81.0017 57.8912H79.5374L78.6689 59.851C78.5929 59.999 78.5371 60.154 78.5026 60.3131C78.3594 60.8508 78.5026 61.1098 78.9045 61.1098C79.3353 61.0562 79.7506 60.9333 80.1286 60.7473L79.7268 62.3406C79.1711 62.5867 78.5588 62.7228 77.9345 62.7389C77.668 62.7552 77.4012 62.7129 77.1588 62.6161C76.9165 62.5193 76.7065 62.371 76.5487 62.1853C76.4064 61.9667 76.3163 61.7258 76.2838 61.4768C76.2513 61.2278 76.277 60.9757 76.3593 60.7353C76.4193 60.564 76.4794 60.3888 76.5487 60.2135L77.6065 57.9151H76.2669L76.8489 56.6006H78.1978L78.7567 55.33L80.7245 55.2941ZM75.8974 56.5767L73.4306 62.5796H71.4582L73.9157 56.5767H75.8974ZM74.5346 54.8958C74.603 54.6408 74.765 54.4117 74.9966 54.2425C75.2197 54.0773 75.5018 53.9831 75.7957 53.9756C75.9231 53.9721 76.0497 53.9943 76.1652 54.0407C76.2808 54.0871 76.382 54.1562 76.4609 54.2425C76.5355 54.3371 76.5864 54.444 76.6103 54.5565C76.6341 54.669 76.6304 54.7846 76.5995 54.8958C76.5256 55.1545 76.365 55.3886 76.1375 55.569C75.9106 55.7269 75.6299 55.8165 75.3384 55.8239C75.2141 55.8292 75.0902 55.8089 74.9769 55.7645C74.8636 55.7202 74.7642 55.6531 74.6871 55.569C74.6075 55.4727 74.5538 55.3623 74.5298 55.2458C74.5058 55.1294 74.5122 55.0098 74.5485 54.8958M68.1046 63.91C68.1692 63.6312 67.9059 63.4241 67.3239 63.3165L66.4971 63.1452C66.2252 63.1593 65.9588 63.2174 65.7118 63.3165C65.5633 63.3512 65.4282 63.4193 65.3203 63.5138C65.2123 63.6082 65.1354 63.7257 65.0974 63.8543C64.9958 64.2765 65.43 64.4796 66.4093 64.4796C66.8199 64.4944 67.2305 64.45 67.6242 64.3482C67.7389 64.3164 67.842 64.2592 67.923 64.1823C68.0041 64.1054 68.0603 64.0115 68.0861 63.91M68.003 59.9267C68.7189 59.9267 69.1809 59.4886 69.3887 58.6282C69.4256 58.5248 69.4376 58.416 69.4241 58.3085C69.4106 58.201 69.3718 58.097 69.3102 58.0028C69.2373 57.9231 69.1425 57.8603 69.0345 57.82C68.9265 57.7797 68.8085 57.7631 68.6912 57.7717C67.9706 57.7717 67.4948 58.2059 67.2546 59.0942C67.1207 59.6399 67.3563 59.9267 67.9845 59.9267M72.7839 56.5767L72.2573 57.8912H71.1995C71.272 58.2095 71.272 58.5369 71.1995 58.8552C71.0387 59.4753 70.6319 60.0275 70.0493 60.4167C69.4248 60.8401 68.6494 61.0639 67.8551 61.05C67.5458 61.0427 67.2364 61.0613 66.9313 61.1058C66.8483 61.1127 66.7704 61.1429 66.7094 61.1919C66.6484 61.2409 66.6079 61.3058 66.5941 61.3766C66.571 61.4483 66.5941 61.5121 66.7234 61.5917C67.1769 61.7077 67.6403 61.793 68.1092 61.8467C68.9268 61.9702 69.495 62.1693 69.7629 62.492C69.9104 62.6603 70.0105 62.8558 70.0554 63.0632C70.1003 63.2706 70.0887 63.4841 70.0216 63.687C69.6936 64.9855 68.3817 65.6468 66.0906 65.6468C65.3079 65.6972 64.5243 65.5593 63.8271 65.2484C63.6071 65.143 63.4343 64.977 63.3363 64.7771C63.2384 64.5771 63.2209 64.3546 63.2866 64.145C63.4391 63.5714 64.095 63.1054 65.2683 62.8027C65.0287 62.7083 64.8346 62.545 64.7192 62.3408C64.6038 62.1367 64.5742 61.9043 64.6355 61.6834C64.7787 61.1257 65.3191 60.7552 66.2569 60.576C65.9403 60.3886 65.7006 60.1198 65.572 59.8078C65.4434 59.4959 65.4325 59.1569 65.5409 58.8393C65.7232 58.1981 66.1636 57.6334 66.7835 57.2459C67.436 56.795 68.2526 56.5579 69.0885 56.5767H72.7839ZM64.9311 56.5767L62.4644 62.5955H60.492L62.9263 56.5767H64.9311ZM63.5453 54.8958C63.6143 54.641 63.7762 54.4121 64.0073 54.2425C64.2285 54.0798 64.5066 53.9858 64.7972 53.9756C64.9242 53.9739 65.0501 53.997 65.1653 54.0432C65.2805 54.0894 65.3821 54.1576 65.4623 54.2425C65.5401 54.3358 65.5919 54.4432 65.6135 54.5566C65.6351 54.6699 65.6261 54.786 65.5871 54.8958C65.5143 55.1548 65.3534 55.3892 65.1251 55.569C64.8973 55.731 64.6121 55.821 64.3167 55.8239C64.1934 55.8276 64.0707 55.8066 63.9585 55.7623C63.8462 55.7181 63.7475 55.6519 63.67 55.569C63.5956 55.4706 63.5449 55.3603 63.5211 55.2446C63.4973 55.1289 63.5008 55.0103 63.5315 54.8958M54.8333 55.0511L52.3943 61.0819H54.3806C54.8749 61.0893 55.366 61.0118 55.8252 60.8538C56.2845 60.6958 56.7026 60.4606 57.0552 60.1617C57.8069 59.5606 58.3193 58.7702 58.5195 57.9032C58.6385 57.5544 58.6658 57.1872 58.5995 56.8282C58.5332 56.4692 58.3749 56.1275 58.1361 55.8279C57.8594 55.5495 57.5098 55.332 57.1161 55.1935C56.7225 55.0549 56.2962 54.9993 55.8727 55.0312L54.8333 55.0511ZM53.3413 53.5454H56.6579C58.3301 53.5454 59.5034 53.9438 60.1825 54.7723C60.8615 55.6008 61.0278 56.6564 60.7044 57.959C60.3987 59.2394 59.6287 60.4028 58.5057 61.281C57.52 62.1192 56.1945 62.5936 54.8102 62.6035H49.6643L53.3413 53.5454Z" fill="#3C3B3B"/>
<path fill-rule="evenodd" clip-rule="evenodd" d="M50.496 68.7657H51.6369C52.0113 68.7762 52.3785 68.6749 52.6763 68.4789C52.7992 68.3863 52.896 68.2707 52.9593 68.1409C53.0225 68.0111 53.0505 67.8706 53.0412 67.7301C53.0503 67.5878 53.0222 67.4455 52.959 67.3139C52.8959 67.1822 52.7992 67.0644 52.6763 66.9692C52.3806 66.7709 52.0107 66.6731 51.6369 66.6944H50.496V68.7657ZM50.496 69.3114V71.6138H49.8215V66.1367H51.4891C52.0789 66.1101 52.6627 66.2499 53.1521 66.5351C53.3561 66.6786 53.518 66.8617 53.6248 67.0693C53.7315 67.2769 53.78 67.5033 53.7664 67.7301C53.7767 67.9519 53.7265 68.1727 53.6198 68.3747C53.5131 68.5767 53.3529 68.7543 53.1521 68.8932C52.6691 69.192 52.0828 69.3409 51.4891 69.3154L50.496 69.3114Z" fill="#3C3B3B"/>
<path fill-rule="evenodd" clip-rule="evenodd" d="M56.4826 71.084C56.6895 71.0882 56.895 71.0549 57.086 70.9863C57.2769 70.9177 57.4491 70.8152 57.5913 70.6856C57.7417 70.5515 57.8599 70.3931 57.9392 70.2194C58.0184 70.0458 58.0572 69.8604 58.0532 69.6739C58.0594 69.4877 58.0217 69.3023 57.9423 69.1291C57.8629 68.9558 57.7434 68.7983 57.5913 68.6661C57.4532 68.5299 57.2827 68.421 57.0914 68.3467C56.9 68.2725 56.6924 68.2347 56.4826 68.2359C56.2703 68.2319 56.0596 68.2683 55.8656 68.3427C55.6715 68.4171 55.4989 68.5275 55.3601 68.6661C55.2086 68.7987 55.0896 68.9563 55.0102 69.1294C54.9309 69.3026 54.8928 69.4877 54.8982 69.6739C54.8912 70.0505 55.0572 70.4142 55.3601 70.6856C55.5031 70.8176 55.6774 70.9214 55.8711 70.9902C56.0648 71.0589 56.2733 71.0909 56.4826 71.084ZM56.4826 71.6257C56.1853 71.6363 55.8886 71.5924 55.6124 71.497C55.3361 71.4016 55.0864 71.2567 54.8797 71.072C54.472 70.6826 54.2463 70.1766 54.2463 69.652C54.2463 69.1273 54.472 68.6213 54.8797 68.2319C55.3072 67.8706 55.8818 67.6683 56.4803 67.6683C57.0788 67.6683 57.6535 67.8706 58.0809 68.2319C58.4839 68.6233 58.7064 69.1286 58.7064 69.652C58.7064 70.1754 58.4839 70.6806 58.0809 71.072C57.8755 71.2559 57.6273 71.4003 57.3527 71.4957C57.078 71.5911 56.7831 71.6354 56.4872 71.6257" fill="#3C3B3B"/>
<path fill-rule="evenodd" clip-rule="evenodd" d="M61.3649 70.6339L62.6121 67.5986H63.0232L64.2935 70.6299L65.6239 67.6543H66.2429L64.4598 71.6177H64.0533L62.8061 68.6462L61.545 71.6177H61.1432L59.3601 67.6543H60.0438L61.3649 70.6339Z" fill="#3C3B3B"/>
<path fill-rule="evenodd" clip-rule="evenodd" d="M70.0123 69.172C69.9718 68.9635 69.87 68.7674 69.7167 68.6024C69.5987 68.4786 69.4485 68.3806 69.2784 68.3162C69.1082 68.2519 68.9229 68.223 68.7374 68.2319C68.5593 68.2373 68.3846 68.2757 68.2252 68.3444C68.0658 68.4131 67.9254 68.5106 67.8135 68.6303C67.6719 68.7951 67.564 68.9797 67.4948 69.176L70.0123 69.172ZM67.4024 69.642C67.4011 69.8276 67.4434 70.0116 67.5267 70.1827C67.6101 70.3539 67.7328 70.5087 67.8874 70.6378C68.0374 70.7746 68.2188 70.8827 68.42 70.9554C68.6213 71.0282 68.838 71.0638 69.0561 71.0601C69.324 71.0607 69.5899 71.0202 69.8414 70.9406C70.1082 70.8486 70.3574 70.7223 70.5805 70.5661L70.7283 70.4586V71.072H70.6821C70.4526 71.2431 70.1899 71.3779 69.9061 71.4704C69.4832 71.5999 69.0277 71.6291 68.5872 71.5548C68.1468 71.4806 67.7375 71.3055 67.4024 71.0481C67.1888 70.8629 67.0217 70.6418 66.9112 70.3985C66.8008 70.1553 66.7494 69.8951 66.7603 69.634C66.7358 69.1161 66.9331 68.6086 67.3147 68.208C67.4883 68.0281 67.7069 67.8845 67.9541 67.7879C68.2013 67.6914 68.4707 67.6443 68.742 67.6504C69.0172 67.6371 69.2924 67.677 69.5474 67.7673C69.8023 67.8576 70.0306 67.9959 70.2156 68.1722C70.5617 68.5577 70.7413 69.0352 70.7237 69.5225V69.6022L67.4024 69.642Z" fill="#3C3B3B"/>
<path fill-rule="evenodd" clip-rule="evenodd" d="M72.7842 68.2319C72.8716 68.0918 72.9905 67.9681 73.1341 67.8682C73.2776 67.7682 73.4429 67.694 73.6202 67.6498C73.7974 67.6057 73.9831 67.5925 74.1664 67.611C74.3496 67.6296 74.5267 67.6795 74.6873 67.7579C74.6967 67.7584 74.7057 67.7613 74.7132 67.7662C74.7206 67.7712 74.7261 67.778 74.7289 67.7858V68.4072C74.6873 68.3873 74.7289 68.4072 74.6735 68.4072C73.6295 67.9053 72.992 68.6263 72.7842 69.1162V71.6098H72.1421V67.6265H72.7842V68.2319Z" fill="#3C3B3B"/>
<path fill-rule="evenodd" clip-rule="evenodd" d="M79.4216 66.7103H77.3845V66.2084H82.1424V66.7103H80.1053V71.558H79.4216V66.7103Z" fill="#3C3B3B"/>
<path fill-rule="evenodd" clip-rule="evenodd" d="M90.513 66.794V68.5426H93.0906V69.0605H90.513V71.0163H93.571V71.5381H89.834V66.2722H93.4509V66.794H90.513Z" fill="#3C3B3B"/>
<path fill-rule="evenodd" clip-rule="evenodd" d="M95.4187 68.1563C95.5725 67.9912 95.7673 67.8579 95.9887 67.7662C96.2102 67.6745 96.4526 67.6268 96.6982 67.6265C96.9224 67.6193 97.1458 67.6532 97.3536 67.726C97.5615 67.7987 97.749 67.9088 97.9039 68.0487C98.0053 68.1432 98.0936 68.2474 98.1672 68.3594L98.2595 68.228C98.4176 68.0437 98.6227 67.8932 98.859 67.7882C99.0953 67.6832 99.3565 67.6265 99.6222 67.6225C99.8465 67.6148 100.07 67.6484 100.278 67.7213C100.486 67.7941 100.673 67.9044 100.828 68.0447C100.985 68.1888 101.107 68.3586 101.186 68.544C101.265 68.7295 101.301 68.9268 101.29 69.1242V71.4823H100.62V69.1481C100.635 68.8868 100.53 68.6308 100.329 68.4351C100.233 68.3422 100.113 68.2696 99.9797 68.2226C99.846 68.1757 99.7016 68.1557 99.5576 68.1642C99.3677 68.172 99.1821 68.2161 99.0144 68.2933C98.8466 68.3704 98.7008 68.4787 98.5875 68.6104C98.5019 68.6843 98.4274 68.7673 98.3658 68.8573V71.4823H97.696V69.1481C97.7044 69.0186 97.683 68.8889 97.6331 68.7666C97.5831 68.6442 97.5056 68.5315 97.405 68.4351C97.3078 68.3434 97.1881 68.2715 97.0547 68.2246C96.9213 68.1778 96.7774 68.1572 96.6336 68.1642C96.4425 68.1725 96.2558 68.2168 96.0866 68.2938C95.9175 68.3709 95.7699 68.4789 95.6543 68.6104C95.5728 68.6884 95.4972 68.7709 95.4279 68.8573V71.4823H94.772V67.6982H95.4187V68.1563Z" fill="#3C3B3B"/>
<path d="M102.722 67.7062H103.392V68.1842C103.532 67.981 103.754 67.8293 104.015 67.758C104.411 67.621 104.845 67.5857 105.264 67.6564C105.683 67.7271 106.069 67.9007 106.376 68.1563C106.763 68.5594 106.977 69.0654 106.981 69.5887C106.985 70.1121 106.779 70.6206 106.399 71.0283C105.595 71.7851 104.417 71.6138 103.456 71.1756L103.392 71.1398V72.9841H102.722V67.7062ZM105.42 68.3953C104.865 68.0846 104.057 68.1563 103.406 68.9091V70.4507C104.085 71.08 104.962 71.1398 105.544 70.7733C105.748 70.6238 105.91 70.436 106.017 70.2243C106.124 70.0126 106.173 69.7826 106.161 69.552C106.149 69.3213 106.076 69.0961 105.947 68.8936C105.819 68.691 105.638 68.5165 105.42 68.3833" fill="#3C3B3B"/>
<path d="M60.9589 63.4878H48.302V64.1172H60.9589V63.4878Z" fill="#3C3B3B"/>
<path d="M128.733 63.4878H71.1487V64.1172H128.733V63.4878Z" fill="#3C3B3B"/>
<path fill-rule="evenodd" clip-rule="evenodd" d="M83.9629 70.9804C84.17 70.9864 84.3762 70.9539 84.5674 70.8852C84.7587 70.8165 84.9306 70.7131 85.0715 70.5821C85.3729 70.3114 85.5388 69.9495 85.5335 69.5743C85.5368 69.1971 85.3713 68.8333 85.0715 68.5586C84.9332 68.4247 84.7618 68.3194 84.5699 68.2505C84.3779 68.1815 84.1705 68.1507 83.9629 68.1602C83.7543 68.1534 83.5464 68.1854 83.3535 68.2541C83.1606 68.3229 82.9871 68.4267 82.845 68.5586C82.5414 68.8312 82.3753 69.1964 82.3831 69.5743C82.3784 69.7603 82.4169 69.9453 82.4962 70.1184C82.5755 70.2914 82.6941 70.4491 82.845 70.5821C82.989 70.7119 83.1627 70.8144 83.3552 70.883C83.5477 70.9516 83.7547 70.9848 83.9629 70.9804ZM83.9629 71.5261C83.6658 71.5345 83.37 71.4896 83.0941 71.3943C82.8182 71.299 82.5682 71.1554 82.36 70.9725C82.1503 70.7852 81.9862 70.5636 81.8775 70.3207C81.7688 70.0778 81.7177 69.8186 81.7272 69.5584C81.7133 69.2953 81.7623 69.0327 81.8712 68.7866C81.98 68.5406 82.1464 68.3166 82.36 68.1284C82.5667 67.9432 82.8162 67.7976 83.0923 67.7008C83.3684 67.6041 83.665 67.5584 83.9629 67.5667C84.2596 67.5573 84.5552 67.6025 84.83 67.6993C85.1048 67.7962 85.3525 67.9424 85.5566 68.1284C85.7686 68.3146 85.9348 68.5358 86.0451 68.7788C86.1554 69.0219 86.2077 69.2816 86.1986 69.5424C86.2058 69.8031 86.1528 70.0624 86.0425 70.3052C85.9323 70.548 85.7671 70.7694 85.5566 70.9565C85.3494 71.1384 85.1009 71.2815 84.8267 71.3768C84.5525 71.472 84.2584 71.5175 83.9629 71.5102" fill="#3C3B3B"/>
<path fill-rule="evenodd" clip-rule="evenodd" d="M110.039 70.9804C110.245 70.9844 110.451 70.951 110.642 70.8824C110.833 70.8138 111.005 70.7115 111.147 70.5821C111.449 70.3119 111.615 69.9496 111.609 69.5743C111.613 69.1969 111.448 68.8328 111.147 68.5585C111.005 68.4277 110.833 68.3234 110.641 68.2522C110.45 68.1809 110.244 68.1441 110.036 68.1441C109.828 68.1441 109.622 68.1809 109.431 68.2522C109.24 68.3234 109.068 68.4277 108.925 68.5585C108.774 68.6928 108.655 68.8518 108.575 69.0262C108.496 69.2006 108.458 69.387 108.463 69.5743C108.457 69.7605 108.495 69.9459 108.574 70.1191C108.654 70.2923 108.773 70.4499 108.925 70.5821C109.068 70.7115 109.24 70.8138 109.431 70.8824C109.622 70.951 109.827 70.9844 110.034 70.9804M110.034 71.5261C109.737 71.5362 109.44 71.4921 109.164 71.3967C108.888 71.3013 108.638 71.1567 108.431 70.9724C108.22 70.7858 108.055 70.5643 107.947 70.3213C107.838 70.0782 107.787 69.8187 107.798 69.5584C107.784 69.2946 107.834 69.0312 107.945 68.785C108.055 68.5388 108.224 68.3152 108.44 68.1283C108.646 67.942 108.895 67.7955 109.172 67.6987C109.448 67.6019 109.745 67.5569 110.043 67.5667C110.341 67.5586 110.638 67.6044 110.914 67.7012C111.19 67.7979 111.439 67.9434 111.646 68.1283C111.853 68.3169 112.015 68.5389 112.122 68.7816C112.229 69.0243 112.279 69.2829 112.27 69.5424C112.286 70.0662 112.062 70.5742 111.646 70.9565C111.438 71.1392 111.188 71.2827 110.912 71.378C110.636 71.4733 110.34 71.5183 110.043 71.5102" fill="#3C3B3B"/>
<path fill-rule="evenodd" clip-rule="evenodd" d="M114.926 70.6817L116.178 67.6305H116.598L117.85 70.6737L119.181 67.6942H119.818L118.035 71.6497H117.628L116.372 68.6861L115.12 71.6497H114.709L112.926 67.6942H113.6L114.926 70.6817Z" fill="#3C3B3B"/>
<path fill-rule="evenodd" clip-rule="evenodd" d="M123.596 69.172C123.558 68.9629 123.456 68.7664 123.301 68.6024C123.183 68.4788 123.034 68.3807 122.865 68.3163C122.695 68.2519 122.511 68.223 122.326 68.232C122.147 68.2344 121.971 68.2714 121.811 68.3403C121.651 68.4093 121.511 68.5084 121.402 68.6303C121.255 68.7921 121.146 68.9776 121.083 69.176L123.596 69.172ZM120.991 69.6421C120.989 69.8278 121.031 70.0119 121.114 70.1831C121.198 70.3543 121.321 70.509 121.476 70.6379C121.625 70.7736 121.805 70.8812 122.004 70.9539C122.204 71.0266 122.419 71.0627 122.635 71.0601C122.903 71.0599 123.169 71.0194 123.421 70.9406C123.687 70.8531 123.934 70.7264 124.151 70.5662L124.312 70.4586V71.0721H124.28C124.045 71.2429 123.778 71.3776 123.49 71.4704C123.066 71.6007 122.609 71.6302 122.166 71.5559C121.724 71.4817 121.314 71.3063 120.977 71.0482C120.766 70.8616 120.601 70.6402 120.491 70.3972C120.381 70.1542 120.33 69.8947 120.34 69.6341C120.319 69.1174 120.514 68.6115 120.889 68.2081C121.073 68.0353 121.296 67.8967 121.544 67.801C121.792 67.7052 122.06 67.6543 122.332 67.6513C122.604 67.6483 122.873 67.6933 123.124 67.7836C123.375 67.8739 123.602 68.0075 123.79 68.1762C124.14 68.5605 124.323 69.0382 124.308 69.5266V69.6062L120.991 69.6421Z" fill="#3C3B3B"/>
<path fill-rule="evenodd" clip-rule="evenodd" d="M126.368 68.1921C126.457 68.0546 126.576 67.9335 126.719 67.8358C126.862 67.738 127.026 67.6656 127.201 67.6227C127.377 67.5798 127.561 67.5672 127.742 67.5856C127.923 67.604 128.098 67.6531 128.257 67.7301C128.257 67.7301 128.29 67.7301 128.308 67.75V68.3953C128.253 68.3435 128.308 68.3953 128.253 68.3674C127.204 67.8615 126.571 68.5905 126.364 69.0685V71.562H125.721V67.5946H126.368V68.1921Z" fill="#3C3B3B"/>
</svg>
